<svg width="267" height="40" viewBox="0 0 267 40" fill="none" xmlns="http://www.w3.org/2000/svg">
<path d="M29.1646 31.532V38.84C27.3086 39.2267 25.4913 39.5167 23.7126 39.71C21.9339 39.9033 19.8266 40 17.3906 40C14.2586 40 11.6099 39.7293 9.44459 39.188C7.31793 38.6467 5.59726 37.6993 4.28259 36.346C3.00659 34.954 2.07859 33.0013 1.49859 30.488C0.918594 27.9747 0.628594 24.746 0.628594 20.802C0.628594 17.0127 0.918594 13.9 1.49859 11.464C2.07859 9.028 3.00659 7.15267 4.28259 5.838C5.59726 4.48467 7.31793 3.55667 9.44459 3.054C11.6099 2.51267 14.2586 2.242 17.3906 2.242C19.8266 2.242 21.9339 2.33867 23.7126 2.532C25.4913 2.68667 27.3086 2.97667 29.1646 3.402V10.942L28.9906 11.058C27.3666 10.6713 25.8006 10.4007 24.2926 10.246C22.7846 10.0527 20.9286 9.956 18.7246 9.956C16.9459 9.956 15.4766 10.0913 14.3166 10.362C13.1953 10.594 12.3059 11.0773 11.6486 11.812C10.9913 12.5467 10.5273 13.6293 10.2566 15.06C10.0246 16.4907 9.90859 18.4047 9.90859 20.802C9.90859 23.3153 10.0246 25.3453 10.2566 26.892C10.5273 28.4 10.9913 29.5407 11.6486 30.314C12.3059 31.0873 13.1953 31.6093 14.3166 31.88C15.4766 32.1507 16.9459 32.286 18.7246 32.286C20.8899 32.286 22.7266 32.228 24.2346 32.112C25.7813 31.9573 27.3279 31.6867 28.8746 31.3L29.1646 31.532ZM43.3538 39.478H34.0738V11.232H41.6138L42.3678 17.032H42.5418C42.8898 14.8667 43.7211 13.32 45.0358 12.392C46.3504 11.4253 48.3031 10.942 50.8938 10.942C51.9378 10.942 52.8851 11 53.7358 11.116C54.5864 11.1933 55.3018 11.2707 55.8818 11.348V20.396L55.7658 20.512C55.1471 20.3573 54.4318 20.222 53.6198 20.106C52.8464 19.99 51.9571 19.932 50.9518 19.932C49.5211 19.932 48.2258 20.164 47.0658 20.628C45.9444 21.092 45.0551 22.0007 44.3978 23.354C43.7791 24.6687 43.4698 26.6407 43.4698 29.27L43.3538 39.478ZM68.7165 0.733997C68.8325 2.126 68.8905 3.286 68.8905 4.214C68.8905 4.75533 68.8712 5.316 68.8325 5.896C68.8325 6.43733 68.7938 7.056 68.7165 7.752C67.9045 7.90666 67.1118 8.02266 66.3385 8.1C65.5652 8.17733 64.7918 8.216 64.0185 8.216C63.2838 8.216 62.5298 8.17733 61.7565 8.1C61.0218 8.02266 60.2678 7.90666 59.4945 7.752C59.4172 7.09467 59.3592 6.49533 59.3205 5.954C59.2818 5.374 59.2625 4.81333 59.2625 4.272C59.2625 3.76933 59.2818 3.228 59.3205 2.648C59.3592 2.068 59.4172 1.43 59.4945 0.733997C60.2678 0.540664 61.0412 0.424665 61.8145 0.385998C62.6265 0.308664 63.4192 0.269996 64.1925 0.269996C64.9272 0.269996 65.6618 0.308664 66.3965 0.385998C67.1698 0.424665 67.9432 0.540664 68.7165 0.733997ZM68.7165 39.478H59.4365V11.232H68.7165V39.478ZM73.8622 31.474C76.8782 32.3247 80.2229 32.75 83.8962 32.75C85.6749 32.75 87.0089 32.692 87.8982 32.576C88.7875 32.46 89.3869 32.2667 89.6962 31.996C90.0055 31.7253 90.1602 31.358 90.1602 30.894C90.1602 30.2367 89.9089 29.8307 89.4062 29.676C88.9422 29.5213 87.9949 29.3087 86.5642 29.038L81.9822 28.168C79.0435 27.588 76.9169 26.6793 75.6022 25.442C74.3262 24.166 73.6882 22.2713 73.6882 19.758C73.6882 16.3553 74.6935 14.0353 76.7042 12.798C78.7535 11.5607 82.0015 10.942 86.4482 10.942C89.1162 10.942 91.4555 11.0967 93.4662 11.406C95.5155 11.6767 97.2169 12.0247 98.5702 12.45L98.4542 19.468L98.2802 19.642C95.1482 18.6367 91.7262 18.134 88.0142 18.134C86.1969 18.134 84.9209 18.2693 84.1862 18.54C83.4902 18.772 83.1422 19.2553 83.1422 19.99C83.1422 20.3767 83.2389 20.686 83.4322 20.918C83.6642 21.15 84.1669 21.382 84.9402 21.614C85.7135 21.8073 86.9315 22.0587 88.5942 22.368L92.8282 23.18C95.1869 23.6827 96.9269 24.514 98.0482 25.674C99.1695 26.834 99.7302 28.6707 99.7302 31.184C99.7302 33.388 99.3242 35.1473 98.5122 36.462C97.7002 37.738 96.3275 38.6467 94.3942 39.188C92.4995 39.7293 89.8702 40 86.5062 40C83.9542 40 81.5955 39.884 79.4302 39.652C77.3035 39.3813 75.3895 39.072 73.6882 38.724V31.59L73.8622 31.474ZM113.406 0.733997C113.522 2.126 113.58 3.286 113.58 4.214C113.58 4.75533 113.561 5.316 113.522 5.896C113.522 6.43733 113.483 7.056 113.406 7.752C112.594 7.90666 111.801 8.02266 111.028 8.1C110.255 8.17733 109.481 8.216 108.708 8.216C107.973 8.216 107.219 8.17733 106.446 8.1C105.711 8.02266 104.957 7.90666 104.184 7.752C104.107 7.09467 104.049 6.49533 104.01 5.954C103.971 5.374 103.952 4.81333 103.952 4.272C103.952 3.76933 103.971 3.228 104.01 2.648C104.049 2.068 104.107 1.43 104.184 0.733997C104.957 0.540664 105.731 0.424665 106.504 0.385998C107.316 0.308664 108.109 0.269996 108.882 0.269996C109.617 0.269996 110.351 0.308664 111.086 0.385998C111.859 0.424665 112.633 0.540664 113.406 0.733997ZM113.406 39.478H104.126V11.232H113.406V39.478ZM118.552 31.474C121.568 32.3247 124.912 32.75 128.586 32.75C130.364 32.75 131.698 32.692 132.588 32.576C133.477 32.46 134.076 32.2667 134.386 31.996C134.695 31.7253 134.85 31.358 134.85 30.894C134.85 30.2367 134.598 29.8307 134.096 29.676C133.632 29.5213 132.684 29.3087 131.254 29.038L126.672 28.168C123.733 27.588 121.606 26.6793 120.292 25.442C119.016 24.166 118.378 22.2713 118.378 19.758C118.378 16.3553 119.383 14.0353 121.394 12.798C123.443 11.5607 126.691 10.942 131.138 10.942C133.806 10.942 136.145 11.0967 138.156 11.406C140.205 11.6767 141.906 12.0247 143.26 12.45L143.144 19.468L142.97 19.642C139.838 18.6367 136.416 18.134 132.704 18.134C130.886 18.134 129.61 18.2693 128.876 18.54C128.18 18.772 127.832 19.2553 127.832 19.99C127.832 20.3767 127.928 20.686 128.122 20.918C128.354 21.15 128.856 21.382 129.63 21.614C130.403 21.8073 131.621 22.0587 133.284 22.368L137.518 23.18C139.876 23.6827 141.616 24.514 142.738 25.674C143.859 26.834 144.42 28.6707 144.42 31.184C144.42 33.388 144.014 35.1473 143.202 36.462C142.39 37.738 141.017 38.6467 139.084 39.188C137.189 39.7293 134.56 40 131.196 40C128.644 40 126.285 39.884 124.12 39.652C121.993 39.3813 120.079 39.072 118.378 38.724V31.59L118.552 31.474ZM176.713 31.532V38.84C174.857 39.2267 173.04 39.5167 171.261 39.71C169.483 39.9033 167.375 40 164.939 40C161.807 40 159.159 39.7293 156.993 39.188C154.867 38.6467 153.146 37.6993 151.831 36.346C150.555 34.954 149.627 33.0013 149.047 30.488C148.467 27.9747 148.177 24.746 148.177 20.802C148.177 17.0127 148.467 13.9 149.047 11.464C149.627 9.028 150.555 7.15267 151.831 5.838C153.146 4.48467 154.867 3.55667 156.993 3.054C159.159 2.51267 161.807 2.242 164.939 2.242C167.375 2.242 169.483 2.33867 171.261 2.532C173.04 2.68667 174.857 2.97667 176.713 3.402V10.942L176.539 11.058C174.915 10.6713 173.349 10.4007 171.841 10.246C170.333 10.0527 168.477 9.956 166.273 9.956C164.495 9.956 163.025 10.0913 161.865 10.362C160.744 10.594 159.855 11.0773 159.197 11.812C158.54 12.5467 158.076 13.6293 157.805 15.06C157.573 16.4907 157.457 18.4047 157.457 20.802C157.457 23.3153 157.573 25.3453 157.805 26.892C158.076 28.4 158.54 29.5407 159.197 30.314C159.855 31.0873 160.744 31.6093 161.865 31.88C163.025 32.1507 164.495 32.286 166.273 32.286C168.439 32.286 170.275 32.228 171.783 32.112C173.33 31.9573 174.877 31.6867 176.423 31.3L176.713 31.532ZM192.353 10.942C196.065 10.942 199.061 11.3287 201.343 12.102C203.624 12.8753 205.287 14.306 206.331 16.394C207.413 18.4433 207.955 21.4207 207.955 25.326V39.478H199.545L199.255 36.81H199.081C198.346 37.7767 197.205 38.55 195.659 39.13C194.112 39.71 192.101 40 189.627 40C182.937 40 179.593 36.868 179.593 30.604C179.593 27.936 180.463 25.848 182.203 24.34C183.981 22.7933 186.765 22.02 190.555 22.02H199.139C198.868 20.396 198.172 19.3133 197.051 18.772C195.929 18.192 194.015 17.902 191.309 17.902C189.607 17.902 187.925 18.0373 186.263 18.308C184.639 18.54 183.208 18.8107 181.971 19.12L181.797 19.004L181.855 12.276C182.628 12.044 183.614 11.8313 184.813 11.638C186.011 11.406 187.268 11.232 188.583 11.116C189.936 11 191.193 10.942 192.353 10.942ZM192.005 33.156C194.402 33.156 196.2 32.866 197.399 32.286C198.597 31.6673 199.216 30.7007 199.255 29.386V27.936H192.701C190.999 27.936 189.801 28.1873 189.105 28.69C188.447 29.154 188.119 29.792 188.119 30.604C188.119 31.5707 188.467 32.2473 189.163 32.634C189.859 32.982 190.806 33.156 192.005 33.156ZM223.301 39.478H214.021V11.232H221.561L222.315 17.032H222.489C222.837 14.8667 223.668 13.32 224.983 12.392C226.298 11.4253 228.25 10.942 230.841 10.942C231.885 10.942 232.832 11 233.683 11.116C234.534 11.1933 235.249 11.2707 235.829 11.348V20.396L235.713 20.512C235.094 20.3573 234.379 20.222 233.567 20.106C232.794 19.99 231.904 19.932 230.899 19.932C229.468 19.932 228.173 20.164 227.013 20.628C225.892 21.092 225.002 22.0007 224.345 23.354C223.726 24.6687 223.417 26.6407 223.417 29.27L223.301 39.478ZM264.788 38.55C263.705 38.9367 262.197 39.2847 260.264 39.594C258.369 39.8647 256.107 40 253.478 40C250.152 40 247.31 39.5747 244.952 38.724C242.632 37.8347 240.872 36.346 239.674 34.258C238.475 32.1313 237.876 29.1927 237.876 25.442C237.876 20.338 239.036 16.6453 241.356 14.364C243.714 12.0827 247.349 10.942 252.26 10.942C255.778 10.942 258.543 11.4447 260.554 12.45C262.603 13.4553 264.053 14.886 264.904 16.742C265.793 18.5593 266.238 20.7247 266.238 23.238C266.238 23.9727 266.199 24.7653 266.122 25.616C266.083 26.4667 265.986 27.298 265.832 28.11L265.6 28.342H246.518C246.788 30.0433 247.581 31.1647 248.896 31.706C250.249 32.2473 252.434 32.518 255.45 32.518C257.46 32.518 259.123 32.4793 260.438 32.402C261.791 32.286 263.164 32.1313 264.556 31.938L264.788 32.112V38.55ZM258.176 22.252C258.176 21.324 258.021 20.5313 257.712 19.874C257.441 19.178 256.88 18.656 256.03 18.308C255.179 17.9213 253.922 17.728 252.26 17.728C249.824 17.728 248.219 18.1533 247.446 19.004C246.711 19.816 246.344 20.8987 246.344 22.252H258.176Z" fill="black"/>
</svg>
